<?xml version="1.0" standalone="no"?>
<!DOCTYPE svg PUBLIC "-//W3C//DTD SVG 20010904//EN"
 "http://www.w3.org/TR/2001/REC-SVG-20010904/DTD/svg10.dtd">
<svg version="1.0" xmlns="http://www.w3.org/2000/svg"
 width="100.000000pt" height="100.000000pt" viewBox="0 0 100.000000 100.000000"
 preserveAspectRatio="xMidYMid meet">

<g transform="translate(0.000000,100.000000) scale(0.100000,-0.100000)"
fill="#000000" stroke="none">
<path d="M344 825 c-4 -8 -13 -15 -21 -15 -8 0 -30 -15 -49 -34 l-34 -34 0
-222 0 -222 39 -39 39 -39 173 0 c266 0 269 3 269 302 0 218 -8 249 -69 280
-19 9 -39 22 -44 27 -16 16 -57 13 -63 -4 -5 -12 -24 -15 -84 -15 -57 0 -81 4
-90 15 -7 8 -23 15 -37 15 -13 0 -26 -7 -29 -15z m46 -36 c0 -38 -24 -35 -28
4 -2 19 1 27 12 27 11 0 16 -10 16 -31z m240 1 c0 -31 -16 -41 -26 -15 -8 19
2 45 16 45 5 0 10 -13 10 -30z m-288 -22 c5 -35 54 -37 70 -4 11 25 15 26 90
26 71 0 78 -2 78 -20 0 -25 29 -41 52 -29 10 5 18 16 18 24 0 27 21 26 50 -4
17 -16 30 -34 30 -40 0 -8 -72 -11 -230 -11 -201 0 -230 2 -230 15 0 17 43 65
59 65 5 0 11 -10 13 -22z m388 -258 c0 -264 -5 -270 -236 -270 -223 0 -228 5
-232 248 -2 95 -1 180 2 188 4 12 45 14 236 14 l230 0 0 -180z"/>
<path d="M319 643 c-4 -48 4 -100 19 -116 12 -14 13 -21 3 -40 -7 -14 -11 -53
-9 -101 2 -62 7 -81 21 -90 12 -8 22 -8 35 0 13 9 18 28 20 94 2 48 -1 87 -8
94 -14 14 -13 35 5 52 17 17 21 109 5 119 -6 4 -10 -13 -10 -44 0 -34 -7 -61
-21 -83 -15 -24 -20 -27 -16 -11 3 13 -1 24 -9 27 -9 4 -14 22 -14 55 0 46
-18 84 -21 44z m69 -250 c-2 -61 -6 -78 -18 -78 -12 0 -16 17 -18 78 -3 72 -2
77 18 77 20 0 21 -5 18 -77z"/>
<path d="M360 410 c0 -5 5 -10 10 -10 6 0 10 5 10 10 0 6 -4 10 -10 10 -5 0
-10 -4 -10 -10z"/>
<path d="M647 645 c-9 -8 -19 -10 -28 -4 -24 15 -93 10 -126 -11 -37 -22 -60
-82 -49 -126 4 -15 22 -42 41 -61 28 -28 40 -33 80 -33 40 0 52 5 81 34 21 21
34 44 34 60 0 37 -24 33 -48 -8 -11 -19 -31 -36 -46 -40 -33 -8 -79 12 -84 37
-3 14 4 17 42 17 25 0 48 5 51 10 13 21 -17 40 -64 40 l-46 1 28 24 c34 30 66
32 100 5 32 -25 57 -26 57 -1 0 11 5 23 10 26 15 9 12 32 -5 39 -8 3 -21 -1
-28 -9z m-45 -15 c21 -6 42 -20 48 -30 14 -26 -2 -26 -25 0 -37 41 -145 11
-145 -41 0 -16 7 -19 45 -19 25 0 45 -3 45 -7 0 -5 -19 -8 -42 -8 -36 0 -43
-3 -46 -21 -4 -30 42 -64 85 -64 34 0 63 21 90 66 10 16 12 17 12 2 1 -28 -48
-77 -83 -84 -92 -17 -162 98 -105 170 34 44 63 52 121 36z"/>
<path d="M360 609 c0 -24 4 -38 10 -34 6 3 10 22 10 41 0 19 -4 34 -10 34 -5
0 -10 -18 -10 -41z"/>
<path d="M618 398 c-41 -20 -58 -35 -58 -48 0 -16 6 -19 30 -17 17 2 36 10 43
16 10 11 5 12 -23 6 -42 -9 -34 2 20 26 22 10 40 14 40 8 0 -19 -29 -67 -45
-73 -23 -9 -27 -8 -19 5 4 8 -1 9 -17 4 -33 -10 -36 -15 -19 -25 52 -33 120
27 120 106 0 29 0 29 -72 -8z"/>
<path d="M448 358 c9 -9 15 -9 24 0 9 9 7 12 -12 12 -19 0 -21 -3 -12 -12z"/>
<path d="M500 360 c0 -5 7 -10 15 -10 8 0 15 5 15 10 0 6 -7 10 -15 10 -8 0
-15 -4 -15 -10z"/>
<path d="M445 320 c-3 -5 3 -10 15 -10 12 0 18 5 15 10 -3 6 -10 10 -15 10 -5
0 -12 -4 -15 -10z"/>
<path d="M508 313 c7 -3 16 -2 19 1 4 3 -2 6 -13 5 -11 0 -14 -3 -6 -6z"/>
</g>
</svg>
