<svg xmlns="http://www.w3.org/2000/svg" width="100" height="100" viewBox="0 0 100 100" version="1.1"><path d="M 34.227 16.750 C 33.084 17.712, 30.746 19.277, 29.033 20.227 C 23.747 23.158, 23 26.624, 23.002 48.218 C 23.003 69.437, 23.634 72.252, 29.319 76.429 C 31.833 78.275, 33.833 78.535, 47.735 78.823 C 65.800 79.197, 70.795 78.023, 74.081 72.635 C 75.805 69.808, 75.993 67.408, 75.996 48.200 C 76 24.070, 75.594 22.364, 69.047 19.024 C 66.896 17.927, 64.854 16.572, 64.509 16.014 C 63.583 14.516, 60.360 14.783, 58.643 16.500 C 57.578 17.565, 54.982 18, 49.694 18 C 44.293 18, 41.903 17.588, 41 16.500 C 39.347 14.509, 36.777 14.604, 34.227 16.750 M 36.362 19.500 C 35.646 21.364, 36.588 24, 37.969 24 C 38.536 24, 39 22.650, 39 21 C 39 17.860, 37.351 16.922, 36.362 19.500 M 60.362 19.500 C 59.646 21.364, 60.588 24, 61.969 24 C 62.536 24, 63 22.650, 63 21 C 63 17.860, 61.351 16.922, 60.362 19.500 M 29.455 23.455 C 28.105 24.805, 27 26.605, 27 27.455 C 27 28.803, 29.867 29, 49.441 29 C 63.487 29, 72.116 28.622, 72.507 27.989 C 72.851 27.433, 71.704 25.550, 69.959 23.805 C 66.954 20.800, 66.732 20.735, 65.768 22.566 C 65.209 23.630, 64.070 25.045, 63.238 25.711 C 61.235 27.314, 58 25.618, 58 22.965 C 58 21.175, 57.286 21, 50 21 C 43.695 21, 42 21.306, 42 22.443 C 42 23.237, 41.030 24.566, 39.845 25.396 C 37.209 27.242, 34 25.908, 34 22.965 C 34 20.320, 32.418 20.491, 29.455 23.455 M 26.801 31.533 C 26.508 31.826, 26.479 40.263, 26.736 50.283 C 27.255 70.499, 27.722 72.150, 33.618 74.614 C 37.750 76.340, 64.431 75.910, 67.885 74.061 C 72.305 71.696, 73 68.296, 73 49.050 L 73 31 50.167 31 C 37.608 31, 27.094 31.240, 26.801 31.533 M 31.368 35.484 C 30.369 38.087, 31.686 44.995, 33.579 47.087 C 35.034 48.695, 35.124 49.399, 34.118 51.280 C 33.378 52.662, 33.023 56.604, 33.204 61.415 C 33.437 67.615, 33.872 69.524, 35.250 70.390 C 36.523 71.190, 37.477 71.190, 38.750 70.390 C 40.128 69.524, 40.563 67.615, 40.796 61.415 C 40.977 56.604, 40.622 52.662, 39.882 51.280 C 38.883 49.412, 38.962 48.700, 40.336 47.181 C 42.194 45.128, 42.695 35.548, 41 34.500 C 40.385 34.120, 40 35.782, 40 38.819 C 40 41.987, 39.463 44.201, 38.500 45 C 36.058 47.027, 34 44.483, 34 39.437 C 34 34.973, 32.454 32.652, 31.368 35.484 M 36 38.441 C 36 40.948, 36.450 43, 37 43 C 37.550 43, 38 41.227, 38 39.059 C 38 36.891, 37.550 34.840, 37 34.500 C 36.389 34.122, 36 35.656, 36 38.441 M 54.013 34.737 C 44.599 36.495, 40.933 48.729, 47.838 55.345 C 51.745 59.088, 56.391 60.281, 60.450 58.585 C 64.398 56.936, 68 52.537, 68 49.365 C 68 46.067, 65.383 46.359, 63.573 49.859 C 61.592 53.690, 57.014 55.606, 53.841 53.934 C 51.474 52.687, 50.043 51.122, 50.015 49.750 C 50.007 49.337, 51.998 49, 54.441 49 C 56.884 49, 59.172 48.530, 59.527 47.956 C 60.716 46.032, 57.814 44, 53.878 44 C 49.503 44, 48.950 42.849, 52.223 40.557 C 55.227 38.452, 58.220 38.599, 61.273 41 C 64.433 43.485, 67 43.575, 67 41.200 C 67 40.210, 67.510 38.890, 68.133 38.267 C 69.596 36.804, 68.522 34, 66.500 34 C 65.640 34, 64.692 34.638, 64.393 35.417 C 63.924 36.641, 63.385 36.641, 60.457 35.417 C 58.591 34.638, 56.937 34.061, 56.782 34.136 C 56.627 34.211, 55.381 34.481, 54.013 34.737 M 48.923 39.923 C 43.876 44.970, 45.653 53.184, 52.494 56.430 C 57.923 59.006, 64.321 56.377, 66.317 50.750 C 66.658 49.788, 66.501 49, 65.969 49 C 65.436 49, 65 49.597, 65 50.326 C 65 52.838, 60.287 56.190, 56.607 56.294 C 52.396 56.413, 48 52.882, 48 49.380 C 48 47.391, 48.588 47.063, 52.750 46.735 L 57.500 46.360 52.250 46.180 C 49.362 46.081, 47 45.611, 47 45.135 C 47 43.585, 51.223 38.855, 53.388 37.980 C 55.205 37.246, 55.244 37.118, 53.673 37.063 C 52.668 37.029, 50.531 38.315, 48.923 39.923 M 60 38.015 C 61.375 38.598, 63.058 39.813, 63.740 40.715 C 64.421 41.616, 65.172 42.161, 65.408 41.925 C 66.393 40.940, 63.159 38.089, 60.438 37.543 C 57.605 36.975, 57.589 36.992, 60 38.015 M 35 60.573 C 35 67.247, 35.208 68.107, 36.750 67.813 C 38.191 67.538, 38.552 66.200, 38.794 60.239 C 39.067 53.519, 38.941 53, 37.044 53 C 35.165 53, 35 53.613, 35 60.573 M 61.750 60.188 C 57.529 62.306, 56 63.625, 56 65.145 C 56 66.870, 56.461 67.126, 58.750 66.676 L 61.500 66.136 58.750 67.261 C 55.310 68.668, 55.252 69.774, 58.574 70.608 C 63.907 71.946, 69 66.536, 69 59.532 C 69 56.524, 69.062 56.518, 61.750 60.188 M 36 59 C 36 59.550, 36.450 60, 37 60 C 37.550 60, 38 59.550, 38 59 C 38 58.450, 37.550 58, 37 58 C 36.450 58, 36 58.450, 36 59 M 61.500 63.069 C 57.584 64.950, 57.568 64.978, 60.750 64.416 C 64.422 63.766, 64.782 64.462, 62.250 67.313 C 60.548 69.229, 60.561 69.246, 62.732 67.912 C 64.825 66.627, 67.721 60.912, 66.198 61.074 C 65.814 61.115, 63.700 62.013, 61.500 63.069 M 44.800 64.200 C 45.733 65.133, 46.267 65.133, 47.200 64.200 C 48.133 63.267, 47.867 63, 46 63 C 44.133 63, 43.867 63.267, 44.800 64.200 M 50 64 C 50 64.550, 50.675 65, 51.500 65 C 52.325 65, 53 64.550, 53 64 C 53 63.450, 52.325 63, 51.500 63 C 50.675 63, 50 63.450, 50 64 M 44.500 68 C 44.160 68.550, 44.835 69, 46 69 C 47.165 69, 47.840 68.550, 47.500 68 C 47.160 67.450, 46.485 67, 46 67 C 45.515 67, 44.840 67.450, 44.500 68 M 50 68 C 50 68.550, 50.675 69, 51.500 69 C 52.325 69, 53 68.550, 53 68 C 53 67.450, 52.325 67, 51.500 67 C 50.675 67, 50 67.450, 50 68" stroke="none" fill="#1d433d" fill-rule="evenodd"/><path d="M 36.362 19.500 C 35.646 21.364, 36.588 24, 37.969 24 C 38.536 24, 39 22.650, 39 21 C 39 17.860, 37.351 16.922, 36.362 19.500 M 60.362 19.500 C 59.646 21.364, 60.588 24, 61.969 24 C 62.536 24, 63 22.650, 63 21 C 63 17.860, 61.351 16.922, 60.362 19.500 M 29.455 23.455 C 28.105 24.805, 27 26.605, 27 27.455 C 27 28.803, 29.867 29, 49.441 29 C 63.487 29, 72.116 28.622, 72.507 27.989 C 72.851 27.433, 71.704 25.550, 69.959 23.805 C 66.954 20.800, 66.732 20.735, 65.768 22.566 C 65.209 23.630, 64.070 25.045, 63.238 25.711 C 61.235 27.314, 58 25.618, 58 22.965 C 58 21.175, 57.286 21, 50 21 C 43.695 21, 42 21.306, 42 22.443 C 42 23.237, 41.030 24.566, 39.845 25.396 C 37.209 27.242, 34 25.908, 34 22.965 C 34 20.320, 32.418 20.491, 29.455 23.455 M 26.801 31.533 C 26.508 31.826, 26.479 40.263, 26.736 50.283 C 27.255 70.499, 27.722 72.150, 33.618 74.614 C 37.750 76.340, 64.431 75.910, 67.885 74.061 C 72.305 71.696, 73 68.296, 73 49.050 L 73 31 50.167 31 C 37.608 31, 27.094 31.240, 26.801 31.533 M 31.368 35.484 C 30.369 38.087, 31.686 44.995, 33.579 47.087 C 35.034 48.695, 35.124 49.399, 34.118 51.280 C 33.378 52.662, 33.023 56.604, 33.204 61.415 C 33.437 67.615, 33.872 69.524, 35.250 70.390 C 36.523 71.190, 37.477 71.190, 38.750 70.390 C 40.128 69.524, 40.563 67.615, 40.796 61.415 C 40.977 56.604, 40.622 52.662, 39.882 51.280 C 38.883 49.412, 38.962 48.700, 40.336 47.181 C 42.194 45.128, 42.695 35.548, 41 34.500 C 40.385 34.120, 40 35.782, 40 38.819 C 40 41.987, 39.463 44.201, 38.500 45 C 36.058 47.027, 34 44.483, 34 39.437 C 34 34.973, 32.454 32.652, 31.368 35.484 M 36 38.441 C 36 40.948, 36.450 43, 37 43 C 37.550 43, 38 41.227, 38 39.059 C 38 36.891, 37.550 34.840, 37 34.500 C 36.389 34.122, 36 35.656, 36 38.441 M 54.013 34.737 C 44.599 36.495, 40.933 48.729, 47.838 55.345 C 51.745 59.088, 56.391 60.281, 60.450 58.585 C 64.398 56.936, 68 52.537, 68 49.365 C 68 46.067, 65.383 46.359, 63.573 49.859 C 61.592 53.690, 57.014 55.606, 53.841 53.934 C 51.474 52.687, 50.043 51.122, 50.015 49.750 C 50.007 49.337, 51.998 49, 54.441 49 C 56.884 49, 59.172 48.530, 59.527 47.956 C 60.716 46.032, 57.814 44, 53.878 44 C 49.503 44, 48.950 42.849, 52.223 40.557 C 55.227 38.452, 58.220 38.599, 61.273 41 C 64.433 43.485, 67 43.575, 67 41.200 C 67 40.210, 67.510 38.890, 68.133 38.267 C 69.596 36.804, 68.522 34, 66.500 34 C 65.640 34, 64.692 34.638, 64.393 35.417 C 63.924 36.641, 63.385 36.641, 60.457 35.417 C 58.591 34.638, 56.937 34.061, 56.782 34.136 C 56.627 34.211, 55.381 34.481, 54.013 34.737 M 48.923 39.923 C 43.876 44.970, 45.653 53.184, 52.494 56.430 C 57.923 59.006, 64.321 56.377, 66.317 50.750 C 66.658 49.788, 66.501 49, 65.969 49 C 65.436 49, 65 49.597, 65 50.326 C 65 52.838, 60.287 56.190, 56.607 56.294 C 52.396 56.413, 48 52.882, 48 49.380 C 48 47.391, 48.588 47.063, 52.750 46.735 L 57.500 46.360 52.250 46.180 C 49.362 46.081, 47 45.611, 47 45.135 C 47 43.585, 51.223 38.855, 53.388 37.980 C 55.205 37.246, 55.244 37.118, 53.673 37.063 C 52.668 37.029, 50.531 38.315, 48.923 39.923 M 60 38.015 C 61.375 38.598, 63.058 39.813, 63.740 40.715 C 64.421 41.616, 65.172 42.161, 65.408 41.925 C 66.393 40.940, 63.159 38.089, 60.438 37.543 C 57.605 36.975, 57.589 36.992, 60 38.015 M 35 60.573 C 35 67.247, 35.208 68.107, 36.750 67.813 C 38.191 67.538, 38.552 66.200, 38.794 60.239 C 39.067 53.519, 38.941 53, 37.044 53 C 35.165 53, 35 53.613, 35 60.573 M 61.750 60.188 C 57.529 62.306, 56 63.625, 56 65.145 C 56 66.870, 56.461 67.126, 58.750 66.676 L 61.500 66.136 58.750 67.261 C 55.310 68.668, 55.252 69.774, 58.574 70.608 C 63.907 71.946, 69 66.536, 69 59.532 C 69 56.524, 69.062 56.518, 61.750 60.188 M 36 59 C 36 59.550, 36.450 60, 37 60 C 37.550 60, 38 59.550, 38 59 C 38 58.450, 37.550 58, 37 58 C 36.450 58, 36 58.450, 36 59 M 61.500 63.069 C 57.584 64.950, 57.568 64.978, 60.750 64.416 C 64.422 63.766, 64.782 64.462, 62.250 67.313 C 60.548 69.229, 60.561 69.246, 62.732 67.912 C 64.825 66.627, 67.721 60.912, 66.198 61.074 C 65.814 61.115, 63.700 62.013, 61.500 63.069 M 44.800 64.200 C 45.733 65.133, 46.267 65.133, 47.200 64.200 C 48.133 63.267, 47.867 63, 46 63 C 44.133 63, 43.867 63.267, 44.800 64.200 M 50 64 C 50 64.550, 50.675 65, 51.500 65 C 52.325 65, 53 64.550, 53 64 C 53 63.450, 52.325 63, 51.500 63 C 50.675 63, 50 63.450, 50 64 M 44.500 68 C 44.160 68.550, 44.835 69, 46 69 C 47.165 69, 47.840 68.550, 47.500 68 C 47.160 67.450, 46.485 67, 46 67 C 45.515 67, 44.840 67.450, 44.500 68 M 50 68 C 50 68.550, 50.675 69, 51.500 69 C 52.325 69, 53 68.550, 53 68 C 53 67.450, 52.325 67, 51.500 67 C 50.675 67, 50 67.450, 50 68" stroke="none" fill="#e2e8e5" fill-rule="evenodd"/></svg>